<svg height='300px' width='300px'  fill="#888" xmlns="http://www.w3.org/2000/svg" xmlns:xlink="http://www.w3.org/1999/xlink" version="1.1" x="0px" y="0px" viewBox="0 0 24 24" style="enable-background:new 0 0 24 24;" xml:space="preserve">
  <path d="M0.9296875,22c0,0.5522461,0.4472656,1,1,1s1-0.4477539,1-1c0-3.5288086,2.0314941-6.6528931,5.1980591-8.130249  C9.2236328,14.5819092,10.5273438,15,11.9287109,15c1.4066772,0,2.7153931-0.4208984,3.8138428-1.1380615  c0.9453125,0.446228,1.8213501,1.0466309,2.550415,1.7752686C19.9931641,17.3378906,20.9296875,19.5976563,20.9296875,22  c0,0.5522461,0.4472656,1,1,1s1-0.4477539,1-1c0-2.9365234-1.1445313-5.6982422-3.2226563-7.7768555  c-0.6953735-0.6957397-1.50354-1.2922974-2.3706055-1.7841187C18.3306274,11.2301025,18.9287109,9.6837158,18.9287109,8  c0-3.8598633-3.140625-7-7-7s-7,3.1401367-7,7c0,1.6796265,0.5956421,3.222229,1.5854492,4.4298706  C3.0813599,14.3626099,0.9296875,17.9738159,0.9296875,22z M11.9287109,3c2.7568359,0,5,2.2431641,5,5s-2.2431641,5-5,5  s-5-2.2431641-5-5S9.171875,3,11.9287109,3z"></path>
</svg>
