<svg width="81" height="109" viewBox="0 0 81 109" fill="none" xmlns="http://www.w3.org/2000/svg">
  <path d="M81 54.2279C81 76.5954 62.8675 94.7279 40.5 94.7279C18.1325 94.7279 0 76.5954 0 54.2279C0 31.8604 18.1325 13.7279 40.5 13.7279C62.8675 13.7279 81 31.8604 81 54.2279Z" fill="#111618"/>
  <path d="M41 62.0612V72.4779L53.5 55.8112L41 62.0612Z" fill="#FFC785"/>
  <path d="M41 62.0612V72.4779L28.5 55.8112L41 62.0612Z" fill="#FFC785"/>
  <path d="M28.5 53.7279L41 59.9779V47.4779L28.5 53.7279Z" fill="#FFC785"/>
  <path d="M53.5 53.7279L41 59.9779V47.4779L53.5 53.7279Z" fill="#FFC785"/>
  <path d="M41 34.9779L28.5 53.7279L41 47.4779V34.9779Z" fill="#FFC785"/>
  <path d="M41 34.9779L53.5 53.7279L41 47.4779V34.9779Z" fill="#FFC785"/>
  <path fill-rule="evenodd" clip-rule="evenodd" d="M44.6863 0.585787L57.4142 13.3137C58.1953 14.0948 58.1953 15.3611 57.4142 16.1421L44.6863 28.8701C43.9052 29.6511 42.6389 29.6511 41.8579 28.8701C41.0768 28.089 41.0768 26.8227 41.8579 26.0416L51.1716 16.7279H6C4.89543 16.7279 4 15.8325 4 14.7279C4 13.6234 4.89543 12.7279 6 12.7279H51.1716L41.8579 3.41421C41.0768 2.63317 41.0768 1.36684 41.8579 0.585787C42.6389 -0.195262 43.9052 -0.195262 44.6863 0.585787Z" fill="#80E8F8"/>
  <path fill-rule="evenodd" clip-rule="evenodd" d="M36.3137 107.87L23.5858 95.1421C22.8047 94.3611 22.8047 93.0947 23.5858 92.3137L36.3137 79.5858C37.0948 78.8047 38.3611 78.8047 39.1421 79.5858C39.9232 80.3668 39.9232 81.6331 39.1421 82.4142L29.8284 91.7279L75 91.7279C76.1046 91.7279 77 92.6233 77 93.7279C77 94.8325 76.1046 95.7279 75 95.7279L29.8284 95.7279L39.1421 105.042C39.9232 105.823 39.9232 107.089 39.1421 107.87C38.3611 108.651 37.0948 108.651 36.3137 107.87Z" fill="#80E8F8"/>
</svg>
