<svg width="1.5em" viewBox="0 0 24 25" fill="none" xmlns="http://www.w3.org/2000/svg">
<circle cx="12" cy="12.5" r="12" fill="#111618"/>
<g clip-path="url(#clip0)">
<path d="M15.6317 7.13414L13.1233 10.8326C13.0876 10.8859 13.0725 10.9502 13.0808 11.0137C13.0892 11.0771 13.1204 11.1354 13.1686 11.1778C13.2169 11.2202 13.279 11.2438 13.3435 11.2443C13.4079 11.2447 13.4703 11.2219 13.5192 11.1802L15.9883 9.05331C16.0028 9.04046 16.0207 9.03206 16.0399 9.02915C16.0591 9.02624 16.0788 9.02895 16.0964 9.03693C16.1141 9.04492 16.129 9.05784 16.1394 9.07412C16.1498 9.09041 16.1553 9.10934 16.155 9.12862V15.7874C16.155 15.8078 16.1487 15.8277 16.1369 15.8443C16.1251 15.861 16.1084 15.8737 16.0891 15.8807C16.0698 15.8876 16.0489 15.8885 16.029 15.8833C16.0092 15.878 15.9915 15.8667 15.9783 15.8511L8.515 6.97855C8.39495 6.83778 8.24548 6.72466 8.07696 6.64705C7.90844 6.56945 7.72492 6.52922 7.53917 6.52917H7.27833C6.9393 6.52917 6.61415 6.66293 6.37442 6.90101C6.13468 7.13909 6 7.462 6 7.79869V17.1769C6 17.5136 6.13468 17.8365 6.37442 18.0746C6.61415 18.3127 6.9393 18.4464 7.27833 18.4464C7.49693 18.4465 7.71189 18.3909 7.90271 18.285C8.09353 18.1791 8.25384 18.0264 8.36833 17.8415L10.8767 14.143C10.9124 14.0897 10.9275 14.0254 10.9192 13.9619C10.9108 13.8985 10.8796 13.8402 10.8314 13.7978C10.7831 13.7554 10.721 13.7318 10.6566 13.7313C10.5921 13.7309 10.5297 13.7536 10.4808 13.7954L8.01167 15.9223C7.9972 15.9351 7.97927 15.9435 7.96008 15.9464C7.94088 15.9493 7.92125 15.9466 7.90358 15.9387C7.8859 15.9307 7.87095 15.9178 7.86055 15.9015C7.85015 15.8852 7.84475 15.8662 7.845 15.847V9.18655C7.84501 9.16617 7.85133 9.14628 7.86311 9.12959C7.8749 9.11289 7.89157 9.10021 7.91086 9.09325C7.93016 9.08629 7.95114 9.08539 7.97096 9.09069C7.99078 9.09598 8.00849 9.1072 8.02167 9.12283L15.4842 17.997C15.6042 18.1378 15.7537 18.2509 15.9222 18.3285C16.0907 18.4061 16.2742 18.4464 16.46 18.4464H16.7208C16.8888 18.4465 17.0551 18.4138 17.2103 18.35C17.3655 18.2863 17.5065 18.1928 17.6253 18.0749C17.7441 17.957 17.8383 17.817 17.9026 17.6629C17.9669 17.5088 18 17.3437 18 17.1769V7.79869C18 7.462 17.8653 7.13909 17.6256 6.90101C17.3859 6.66293 17.0607 6.52917 16.7217 6.52917C16.5031 6.52912 16.2881 6.58469 16.0973 6.6906C15.9065 6.79651 15.7462 6.94921 15.6317 7.13414Z" fill="white"/>
</g>
<defs>
<clipPath id="clip0">
<rect width="12" height="12" fill="var(--bg, white)" transform="translate(6 6.48779)"/>
</clipPath>
</defs>
</svg>
