<svg width="153" height="114" viewBox="0 0 153 114" fill="none" xmlns="http://www.w3.org/2000/svg">
<circle cx="76.5" cy="57" r="57" fill="#FEFBE8"/>
<circle cx="20.5" cy="57" r="18" fill="url(#paint0_linear)" stroke="url(#paint1_linear)" stroke-width="4"/>
<path fill-rule="evenodd" clip-rule="evenodd" d="M85.1863 42.8579L97.9142 55.5858C98.6953 56.3669 98.6953 57.6332 97.9142 58.4142L85.1863 71.1422C84.4052 71.9232 83.1389 71.9232 82.3579 71.1422C81.5768 70.3611 81.5768 69.0948 82.3579 68.3137L91.6716 59H56.5C55.3954 59 54.5 58.1046 54.5 57C54.5 55.8954 55.3954 55 56.5 55H91.6716L82.3579 45.6863C81.5768 44.9053 81.5768 43.6389 82.3579 42.8579C83.1389 42.0768 84.4052 42.0768 85.1863 42.8579Z" fill="black"/>
<circle cx="132.5" cy="57" r="18" stroke="#80E8F8" stroke-width="4" stroke-dasharray="4 4"/>
<path d="M131.003 59.824H134.098V59.549C134.115 57.9719 134.686 57.236 135.977 56.4676C137.504 55.5699 138.5 54.3811 138.5 52.4805C138.5 49.6499 136.197 48 132.955 48C129.991 48 127.573 49.5366 127.5 52.7716H130.832C130.881 51.4534 131.869 50.7498 132.939 50.7498C134.041 50.7498 134.931 51.4776 134.931 52.6018C134.931 53.6613 134.156 54.3649 133.151 54.9957C131.779 55.853 131.012 56.7184 131.003 59.549V59.824ZM132.612 65C133.657 65 134.564 64.1346 134.572 63.059C134.564 61.9995 133.657 61.1342 132.612 61.1342C131.534 61.1342 130.644 61.9995 130.652 63.059C130.644 64.1346 131.534 65 132.612 65Z" fill="#80E8F8"/>
<defs>
<linearGradient id="paint0_linear" x1="20.5" y1="37" x2="20.5" y2="77" gradientUnits="userSpaceOnUse">
<stop stop-color="#FFAF53"/>
<stop offset="1" stop-color="#FBD8B1"/>
</linearGradient>
<linearGradient id="paint1_linear" x1="20.5" y1="37" x2="20.5" y2="77" gradientUnits="userSpaceOnUse">
<stop stop-color="#FFCC93"/>
<stop offset="1" stop-color="#FFB056"/>
</linearGradient>
</defs>
</svg>
