<svg width="141" height="96" viewBox="0 0 141 96" fill="none" xmlns="http://www.w3.org/2000/svg">
<circle cx="71" cy="48" r="48" fill="#111618"/>
<circle cx="20" cy="48" r="18" fill="url(#paint0_linear)" stroke="url(#paint1_linear)" stroke-width="4"/>
<path fill-rule="evenodd" clip-rule="evenodd" d="M79.1863 33.8579L91.9142 46.5858C92.6953 47.3669 92.6953 48.6332 91.9142 49.4142L79.1863 62.1422C78.4052 62.9232 77.1389 62.9232 76.3579 62.1422C75.5768 61.3611 75.5768 60.0948 76.3579 59.3137L85.6716 50H50.5C49.3954 50 48.5 49.1046 48.5 48C48.5 46.8954 49.3954 46 50.5 46H85.6716L76.3579 36.6863C75.5768 35.9053 75.5768 34.6389 76.3579 33.8579C77.1389 33.0768 78.4052 33.0768 79.1863 33.8579Z" fill="white"/>
<circle cx="121" cy="48" r="20" fill="#80E8F8"/>
<path d="M119.003 50.824H122.098V50.549C122.115 48.9719 122.686 48.236 123.977 47.4676C125.504 46.5699 126.5 45.3811 126.5 43.4805C126.5 40.6499 124.197 39 120.955 39C117.991 39 115.573 40.5366 115.5 43.7716H118.832C118.881 42.4534 119.869 41.7498 120.939 41.7498C122.041 41.7498 122.931 42.4776 122.931 43.6018C122.931 44.6613 122.156 45.3649 121.151 45.9957C119.779 46.853 119.012 47.7184 119.003 50.549V50.824ZM120.612 56C121.657 56 122.564 55.1346 122.572 54.059C122.564 52.9995 121.657 52.1342 120.612 52.1342C119.534 52.1342 118.644 52.9995 118.652 54.059C118.644 55.1346 119.534 56 120.612 56Z" fill="white"/>
<defs>
<linearGradient id="paint0_linear" x1="20" y1="28" x2="20" y2="68" gradientUnits="userSpaceOnUse">
<stop stop-color="#FFAF53"/>
<stop offset="1" stop-color="#FBD8B1"/>
</linearGradient>
<linearGradient id="paint1_linear" x1="20" y1="28" x2="20" y2="68" gradientUnits="userSpaceOnUse">
<stop stop-color="#FFCC93"/>
<stop offset="1" stop-color="#FFB056"/>
</linearGradient>
</defs>
</svg>
