<?xml version="1.0" encoding="UTF-8"?>
<svg width="81px" height="109px" viewBox="0 0 81 109" version="1.1" xmlns="http://www.w3.org/2000/svg" xmlns:xlink="http://www.w3.org/1999/xlink">
    <title>eth-wallet-sig</title>
    <g id="Page-1" stroke="none" stroke-width="1" fill="none" fill-rule="evenodd">
        <g id="eth-wallet-sig" transform="translate(0.000000, 0.000000)">
            <path d="M81,54.5 C81,76.8675 62.8675,95 40.5,95 C18.1325,95 0,76.8675 0,54.5 C0,32.1325 18.1325,14 40.5,14 C62.8675,14 81,32.1325 81,54.5 Z" id="Path" fill="#111618" fill-rule="nonzero"></path>
            <path d="M40.5,38 C38.2986972,38 36.2861455,39.2431677 35.3012663,41.2119445 L25.614185,60.5869444 C24.7127765,62.388863 24.8087819,64.5290922 25.8679042,66.2430586 C26.9270265,67.9570251 28.7981812,69 30.8129187,69 L50.1870813,69 C52.2018188,69 54.0729735,67.9570251 55.1320958,66.2430586 C56.1912181,64.5290922 56.2872235,62.388863 55.385815,60.5869444 L45.6987337,41.2119445 C44.7138545,39.2431677 42.7013028,38 40.5,38 L40.5,38 Z" id="Path" stroke="#FFFFFF" stroke-width="2.5" fill-rule="nonzero"></path>
            <path d="M44.6863,0.58578675 L57.4142,13.3136998 C58.1953,14.0947997 58.1953,15.3610998 57.4142,16.1420997 L44.6863,28.8700998 C43.9052,29.6510998 42.6389,29.6510998 41.8579,28.8700998 C41.0768,28.0889997 41.0768,26.8226998 41.8579,26.0415997 L51.1716,16.7278998 L6,16.7278998 C4.89543,16.7278998 4,15.8324998 4,14.7278998 C4,13.6233998 4.89543,12.7278998 6,12.7278998 L51.1716,12.7278998 L41.8579,3.41420975 C41.0768,2.63316975 41.0768,1.36683975 41.8579,0.58578675 C42.6389,-0.19526225 43.9052,-0.19526225 44.6863,0.58578675 Z" id="Path" fill="#80E8F8"></path>
            <path d="M36.3137,107.87 L23.5858,95.1420997 C22.8047,94.3610997 22.8047,93.0946998 23.5858,92.3136997 L36.3137,79.5857998 C37.0948,78.8046997 38.3611,78.8046997 39.1421,79.5857998 C39.9232,80.3667997 39.9232,81.6330997 39.1421,82.4141997 L29.8284,91.7278998 L75,91.7278998 C76.1046,91.7278998 77,92.6232998 77,93.7278998 C77,94.8324997 76.1046,95.7278998 75,95.7278998 L29.8284,95.7278998 L39.1421,105.042 C39.9232,105.823 39.9232,107.089 39.1421,107.87 C38.3611,108.651 37.0948,108.651 36.3137,107.87 Z" id="Path" fill="#80E8F8"></path>
        </g>
    </g>
</svg>