<svg width="32" height="33" viewBox="0 0 32 33" fill="none" xmlns="http://www.w3.org/2000/svg">
<path d="M0 8C0 3.58172 3.58172 0 8 0H24C28.4183 0 32 3.58172 32 8V25C32 29.4183 28.4183 33 24 33H8C3.58172 33 0 29.4183 0 25V8Z" fill="white"/>
<path d="M8 2H24V-2H8V2ZM30 8V25H34V8H30ZM24 31H8V35H24V31ZM2 25V8H-2V25H2ZM8 31C4.68629 31 2 28.3137 2 25H-2C-2 30.5228 2.47715 35 8 35V31ZM30 25C30 28.3137 27.3137 31 24 31V35C29.5228 35 34 30.5228 34 25H30ZM24 2C27.3137 2 30 4.68629 30 8H34C34 2.47715 29.5228 -2 24 -2V2ZM8 -2C2.47715 -2 -2 2.47715 -2 8H2C2 4.68629 4.68629 2 8 2V-2Z" fill="white"/>
<path d="M10 13H11.3333H22" stroke="#FC5B5B" stroke-width="1.5" stroke-linecap="round" stroke-linejoin="round"/>
<path d="M13.3335 13V11.6667C13.3335 11.3131 13.474 10.9739 13.724 10.7239C13.9741 10.4738 14.3132 10.3334 14.6668 10.3334H17.3335C17.6871 10.3334 18.0263 10.4738 18.2763 10.7239C18.5264 10.9739 18.6668 11.3131 18.6668 11.6667V13M20.6668 13V22.3334C20.6668 22.687 20.5264 23.0261 20.2763 23.2762C20.0263 23.5262 19.6871 23.6667 19.3335 23.6667H12.6668C12.3132 23.6667 11.9741 23.5262 11.724 23.2762C11.474 23.0261 11.3335 22.687 11.3335 22.3334V13H20.6668Z" stroke="#FC5B5B" stroke-width="1.5" stroke-linecap="round" stroke-linejoin="round"/>
<path d="M14.6665 16.3334V20.3334" stroke="#FC5B5B" stroke-width="1.5" stroke-linecap="round" stroke-linejoin="round"/>
<path d="M17.3335 16.3334V20.3334" stroke="#FC5B5B" stroke-width="1.5" stroke-linecap="round" stroke-linejoin="round"/>
</svg>
