<svg width="45" height="53" viewBox="0 0 45 53" fill="none" xmlns="http://www.w3.org/2000/svg">
  <rect x="0.478516" y="20.6763" width="40.5308" height="31.9677" fill="#FFC785"/>
  <rect x="28.6729" y="32.1724" width="15.8486" height="8.97582" fill="#E78513"/>
  <path fill-rule="evenodd" clip-rule="evenodd" d="M20.7437 10.0039C19.6391 10.0039 18.7437 9.10848 18.7437 8.00391L18.7437 2.61372C18.7437 1.50915 19.6391 0.613721 20.7437 0.613721C21.8482 0.613721 22.7437 1.50915 22.7437 2.61372L22.7437 8.00391C22.7437 9.10848 21.8482 10.0039 20.7437 10.0039Z" fill="#80E8F8"/>
  <path fill-rule="evenodd" clip-rule="evenodd" d="M28.3561 11.4181C27.5751 10.6371 27.5751 9.37074 28.3561 8.58969L32.1675 4.77826C32.9486 3.99721 34.2149 3.99721 34.996 4.77826C35.777 5.5593 35.777 6.82563 34.996 7.60668L31.1845 11.4181C30.4035 12.1992 29.1372 12.1992 28.3561 11.4181Z" fill="#80E8F8"/>
  <path fill-rule="evenodd" clip-rule="evenodd" d="M13.1312 11.4181C13.9122 10.6371 13.9122 9.37074 13.1312 8.58969L9.31976 4.77826C8.53871 3.99721 7.27238 3.99721 6.49133 4.77826C5.71028 5.5593 5.71028 6.82563 6.49133 7.60668L10.3028 11.4181C11.0838 12.1992 12.3501 12.1992 13.1312 11.4181Z" fill="#80E8F8"/>
  <circle cx="33.0771" cy="36.6602" r="2" fill="white"/>
</svg>
