<svg width="49" height="54" viewBox="0 0 49 54" fill="none" xmlns="http://www.w3.org/2000/svg">
  <path fill-rule="evenodd" clip-rule="evenodd" d="M27.693 11.3997C29.5855 11.6047 31.528 11.6035 32.8678 11.2162C33.8096 10.944 33.9861 10.6237 34.0202 10.5318C34.0678 10.4037 34.2071 9.75501 33.2907 8.1679C32.3744 6.58079 31.743 6.37707 31.6083 6.35422C31.5117 6.33783 31.146 6.33051 30.4393 7.01003C29.4341 7.97665 28.4618 9.65838 27.693 11.3997ZM32.2772 2.41054C34.1626 2.73032 35.6147 4.19304 36.7548 6.1679C37.895 8.14276 38.4357 10.1317 37.77 11.9243C37.0908 13.7531 35.4392 14.6367 33.9786 15.0589C31.0907 15.8937 27.1395 15.4815 24.5343 14.9551L22.3125 14.5062L23.0346 12.3576C23.8813 9.83818 25.5 6.21029 27.6669 4.12673C28.7629 3.07287 30.3538 2.08433 32.2772 2.41054Z" fill="#DC1F25"/>
  <path fill-rule="evenodd" clip-rule="evenodd" d="M21.1722 11.3997C19.2798 11.6047 17.3372 11.6035 15.9975 11.2162C15.0556 10.944 14.8791 10.6237 14.845 10.5318C14.7975 10.4037 14.6582 9.75501 15.5745 8.1679C16.4908 6.58079 17.1222 6.37707 17.2569 6.35422C17.3536 6.33783 17.7192 6.33051 18.4259 7.01003C19.4312 7.97665 20.4035 9.65838 21.1722 11.3997ZM16.588 2.41054C14.7027 2.73032 13.2506 4.19304 12.1104 6.1679C10.9702 8.14276 10.4295 10.1317 11.0953 11.9243C11.7744 13.7531 13.426 14.6367 14.8867 15.0589C17.7745 15.8937 21.7257 15.4815 24.331 14.9551L26.5528 14.5062L25.8306 12.3576C24.9839 9.83818 23.3652 6.21029 21.1984 4.12673C20.1024 3.07287 18.5114 2.08433 16.588 2.41054Z" fill="#DC1F25"/>
  <rect x="4.00879" y="21.1763" width="40.5308" height="31.9677" fill="#FFC785"/>
  <rect x="0.15918" y="14.3833" width="48.6824" height="6.79292" fill="#FFB259"/>
  <path fill-rule="evenodd" clip-rule="evenodd" d="M21.7744 53.1439L21.7744 21.1763L26.7744 21.1763L26.7744 53.1439L21.7744 53.1439Z" fill="#FC5A5A"/>
  <path fill-rule="evenodd" clip-rule="evenodd" d="M21.7744 21.1762L21.7744 14.3833L26.7744 14.3833L26.7744 21.1762L21.7744 21.1762Z" fill="#DC1F25"/>
</svg>
