<svg width="72" height="59" viewBox="0 0 72 59" fill="none" xmlns="http://www.w3.org/2000/svg">
	<circle cx="20.2744" cy="15" r="15" fill="#111618"/>
	<g clip-path="url(#clip0)">
	<path d="M24.814 8.29283L21.6786 12.9159C21.6339 12.9825 21.6151 13.0629 21.6255 13.1422C21.6359 13.2216 21.6749 13.2945 21.7352 13.3474C21.7955 13.4004 21.8732 13.4299 21.9537 13.4305C22.0343 13.431 22.1123 13.4026 22.1734 13.3504L25.2598 10.6918C25.2779 10.6757 25.3003 10.6652 25.3243 10.6616C25.3483 10.658 25.3729 10.6613 25.3949 10.6713C25.417 10.6813 25.4357 10.6975 25.4487 10.7178C25.4617 10.7382 25.4685 10.7618 25.4682 10.7859V19.1094C25.4682 19.1349 25.4602 19.1597 25.4455 19.1806C25.4308 19.2015 25.41 19.2173 25.3858 19.226C25.3617 19.2347 25.3355 19.2358 25.3107 19.2292C25.2859 19.2226 25.2638 19.2086 25.2473 19.189L15.9182 8.09835C15.7681 7.92237 15.5813 7.78097 15.3706 7.68397C15.16 7.58696 14.9306 7.53668 14.6984 7.53662H14.3723C13.9485 7.53662 13.5421 7.70381 13.2424 8.00141C12.9428 8.29901 12.7744 8.70265 12.7744 9.12352V20.8463C12.7744 21.2671 12.9428 21.6708 13.2424 21.9684C13.5421 22.266 13.9485 22.4332 14.3723 22.4332C14.6456 22.4332 14.9143 22.3638 15.1528 22.2314C15.3913 22.099 15.5917 21.9081 15.7348 21.677L18.8702 17.0539C18.9149 16.9873 18.9338 16.9069 18.9234 16.8276C18.913 16.7482 18.874 16.6753 18.8136 16.6224C18.7533 16.5694 18.6757 16.5399 18.5951 16.5393C18.5146 16.5388 18.4365 16.5672 18.3755 16.6194L15.289 19.278C15.2709 19.2941 15.2485 19.3046 15.2245 19.3082C15.2005 19.3118 15.176 19.3085 15.1539 19.2985C15.1318 19.2885 15.1131 19.2723 15.1001 19.252C15.0871 19.2316 15.0803 19.208 15.0807 19.1839V10.8583C15.0807 10.8329 15.0886 10.808 15.1033 10.7871C15.118 10.7663 15.1389 10.7504 15.163 10.7417C15.1871 10.733 15.2133 10.7319 15.2381 10.7385C15.2629 10.7451 15.285 10.7592 15.3015 10.7787L24.6296 21.8715C24.7797 22.0474 24.9665 22.1888 25.1772 22.2858C25.3878 22.3828 25.6172 22.4331 25.8494 22.4332H26.1755C26.3854 22.4333 26.5933 22.3924 26.7873 22.3127C26.9813 22.233 27.1575 22.1161 27.306 21.9687C27.4545 21.8214 27.5723 21.6464 27.6527 21.4538C27.733 21.2612 27.7744 21.0548 27.7744 20.8463V9.12352C27.7744 8.70265 27.6061 8.29901 27.3064 8.00141C27.0067 7.70381 26.6003 7.53662 26.1765 7.53662C25.9033 7.53655 25.6345 7.60602 25.396 7.7384C25.1575 7.87079 24.9571 8.06167 24.814 8.29283Z" fill="white"/>
	</g>
	<rect x="0.00878906" y="26.1763" width="40.5308" height="31.9677" fill="#FFC785"/>
	<path fill-rule="evenodd" clip-rule="evenodd" d="M17.7744 58.1439L17.7744 26.1763L22.7744 26.1763L22.7744 58.1439L17.7744 58.1439Z" fill="#FC5A5A"/>
	<path fill-rule="evenodd" clip-rule="evenodd" d="M50.3082 48.3672C52.2007 48.5721 54.1433 48.5709 55.483 48.1836C56.4248 47.9114 56.6013 47.5911 56.6355 47.4992C56.683 47.3711 56.8223 46.7224 55.906 45.1353C54.9897 43.5482 54.3582 43.3445 54.2236 43.3216C54.1269 43.3052 53.7613 43.2979 53.0546 43.9774C52.0493 44.9441 51.077 46.6258 50.3082 48.3672ZM54.8924 39.378C56.7778 39.6977 58.2299 41.1604 59.3701 43.1353C60.5103 45.1102 61.051 47.0991 60.3852 48.8917C59.706 50.7205 58.0545 51.6041 56.5938 52.0263C53.7059 52.8611 49.7548 52.4489 47.1495 51.9225L44.9277 51.4736L45.6498 49.325C46.4966 46.8056 48.1152 43.1777 50.2821 41.0941C51.3781 40.0403 52.9691 39.0517 54.8924 39.378Z" fill="#DC1F25"/>
	<path fill-rule="evenodd" clip-rule="evenodd" d="M43.7875 48.3672C41.895 48.5721 39.9524 48.5709 38.6127 48.1836C37.6709 47.9114 37.4944 47.5911 37.4603 47.4992C37.4127 47.3711 37.2734 46.7224 38.1897 45.1353C39.1061 43.5482 39.7375 43.3445 39.8721 43.3216C39.9688 43.3052 40.3344 43.2979 41.0411 43.9774C42.0464 44.9441 43.0187 46.6258 43.7875 48.3672ZM39.2033 39.378C37.3179 39.6977 35.8658 41.1604 34.7256 43.1353C33.5854 45.1102 33.0447 47.0991 33.7105 48.8917C34.3897 50.7205 36.0412 51.6041 37.5019 52.0263C40.3898 52.8611 44.3409 52.4489 46.9462 51.9225L49.168 51.4736L48.4459 49.325C47.5991 46.8056 45.9805 43.1777 43.8136 41.0941C42.7176 40.0403 41.1267 39.0517 39.2033 39.378Z" fill="#DC1F25"/>
	<rect x="22.7744" y="51.3506" width="48.6824" height="6.79292" fill="#FFB259"/>
	<path fill-rule="evenodd" clip-rule="evenodd" d="M44.3896 58.1435L44.3896 51.3506L49.3896 51.3506L49.3896 58.1435L44.3896 58.1435Z" fill="#DC1F25"/>
	<defs>
	<clipPath id="clip0">
	<rect width="15" height="15" fill="white" transform="translate(12.7744 7.48486)"/>
	</clipPath>
	</defs>
</svg>
