<svg width="81" height="109" viewBox="0 0 81 109" fill="none" xmlns="http://www.w3.org/2000/svg">
<path d="M81 54.228C81 76.5956 62.8675 94.728 40.5 94.728C18.1325 94.728 0 76.5956 0 54.228C0 31.8605 18.1325 13.728 40.5 13.728C62.8675 13.728 81 31.8605 81 54.228Z" fill="#111618"/>
<path fill-rule="evenodd" clip-rule="evenodd" d="M44.6863 0.585787L57.4142 13.3137C58.1953 14.0948 58.1953 15.3611 57.4142 16.1421L44.6863 28.8701C43.9052 29.6511 42.6389 29.6511 41.8579 28.8701C41.0768 28.089 41.0768 26.8227 41.8579 26.0416L51.1716 16.7279H6C4.89543 16.7279 4 15.8325 4 14.7279C4 13.6234 4.89543 12.7279 6 12.7279H51.1716L41.8579 3.41421C41.0768 2.63317 41.0768 1.36684 41.8579 0.585787C42.6389 -0.195262 43.9052 -0.195262 44.6863 0.585787Z" fill="#80E8F8"/>
<path fill-rule="evenodd" clip-rule="evenodd" d="M36.3137 107.87L23.5858 95.1424C22.8047 94.3613 22.8047 93.095 23.5858 92.3139L36.3137 79.586C37.0948 78.805 38.3611 78.805 39.1421 79.586C39.9232 80.367 39.9232 81.6334 39.1421 82.4144L29.8284 91.7281L75 91.7281C76.1046 91.7281 77 92.6236 77 93.7281C77 94.8327 76.1046 95.7281 75 95.7281L29.8284 95.7281L39.1421 105.042C39.9232 105.823 39.9232 107.089 39.1421 107.87C38.3611 108.651 37.0948 108.651 36.3137 107.87Z" fill="#80E8F8"/>
<path d="M48.066 42.3468L42.8403 50.0519C42.7658 50.1629 42.7344 50.2969 42.7518 50.4291C42.7691 50.5613 42.8341 50.6828 42.9346 50.7711C43.0352 50.8594 43.1646 50.9086 43.2989 50.9095C43.4331 50.9104 43.5631 50.863 43.6649 50.7761L48.809 46.345C48.8392 46.3183 48.8765 46.3008 48.9165 46.2947C48.9565 46.2887 48.9974 46.2943 49.0342 46.3109C49.071 46.3276 49.1022 46.3545 49.1238 46.3884C49.1455 46.4223 49.1568 46.4618 49.1562 46.5019V60.3744C49.1562 60.4168 49.1431 60.4583 49.1185 60.493C49.094 60.5278 49.0592 60.5542 49.019 60.5687C48.9788 60.5832 48.9351 60.5851 48.8938 60.5741C48.8525 60.5631 48.8157 60.5397 48.7882 60.5071L33.2396 42.0226C32.9895 41.7293 32.6781 41.4937 32.327 41.332C31.9759 41.1703 31.5936 41.0865 31.2066 41.0864H30.6632C29.9569 41.0864 29.2795 41.3651 28.78 41.8611C28.2806 42.3571 28 43.0298 28 43.7313V63.2692C28 63.9706 28.2806 64.6434 28.78 65.1394C29.2795 65.6354 29.9569 65.914 30.6632 65.914C31.1186 65.9141 31.5664 65.7983 31.964 65.5777C32.3615 65.3571 32.6955 65.0389 32.934 64.6537L38.1597 56.9485C38.2341 56.8375 38.2656 56.7036 38.2482 56.5713C38.2309 56.4391 38.1659 56.3176 38.0654 56.2293C37.9648 56.141 37.8354 56.0918 37.7011 56.0909C37.5669 56.09 37.4369 56.1374 37.3351 56.2244L32.191 60.6554C32.1608 60.6822 32.1235 60.6997 32.0835 60.7057C32.0435 60.7118 32.0026 60.7062 31.9658 60.6895C31.929 60.6729 31.8978 60.646 31.8762 60.612C31.8545 60.5781 31.8432 60.5387 31.8437 60.4985V46.6226C31.8438 46.5802 31.8569 46.5387 31.8815 46.504C31.906 46.4692 31.9408 46.4427 31.981 46.4282C32.0212 46.4137 32.0649 46.4119 32.1062 46.4229C32.1475 46.4339 32.1843 46.4573 32.2118 46.4899L47.7587 64.9778C48.0088 65.2711 48.3202 65.5068 48.6713 65.6684C49.0224 65.8301 49.4047 65.9139 49.7917 65.914H50.3351C50.6849 65.9142 51.0314 65.846 51.3548 65.7132C51.6781 65.5804 51.9719 65.3856 52.2194 65.14C52.4668 64.8944 52.6632 64.6027 52.7971 64.2817C52.9311 63.9607 53 63.6167 53 63.2692V43.7313C53 43.0298 52.7194 42.3571 52.22 41.8611C51.7205 41.3651 51.0431 41.0864 50.3368 41.0864C49.8814 41.0863 49.4336 41.2021 49.036 41.4227C48.6385 41.6434 48.3045 41.9615 48.066 42.3468Z" fill="white"/>
</svg>
