<svg width="57" height="57" viewBox="0 0 57 57" fill="none" xmlns="http://www.w3.org/2000/svg">
	<rect x="0.5" y="0.47168" width="56" height="56" rx="28" fill="#FFDEDF"/>
	<path d="M26.7898 20.3319L18.3198 34.4719C18.1451 34.7743 18.0527 35.1172 18.0518 35.4664C18.0508 35.8156 18.1413 36.159 18.3142 36.4624C18.4871 36.7658 18.7365 37.0186 19.0375 37.1957C19.3385 37.3728 19.6806 37.468 20.0298 37.4719H36.9698C37.319 37.468 37.6611 37.3728 37.9621 37.1957C38.2631 37.0186 38.5124 36.7658 38.6854 36.4624C38.8583 36.159 38.9488 35.8156 38.9478 35.4664C38.9468 35.1172 38.8544 34.7743 38.6798 34.4719L30.2098 20.3319C30.0315 20.038 29.7805 19.795 29.481 19.6264C29.1814 19.4577 28.8435 19.3691 28.4998 19.3691C28.156 19.3691 27.8181 19.4577 27.5186 19.6264C27.2191 19.795 26.968 20.038 26.7898 20.3319V20.3319Z" stroke="#DC1F25" stroke-width="2" stroke-linecap="round" stroke-linejoin="round"/>
	<path d="M28.5 33.4717H28.51" stroke="#DC1F25" stroke-width="2" stroke-linecap="round" stroke-linejoin="round"/>
	<path d="M28.5 25.4717V29.4717" stroke="#DC1F25" stroke-width="2" stroke-linecap="round" stroke-linejoin="round"/>
</svg>
